<?xml version="1.0" encoding="UTF-8"?>
<svg xmlns="http://www.w3.org/2000/svg" xmlns:xlink="http://www.w3.org/1999/xlink" width="128px" height="128px" viewBox="0 0 128 128" version="1.1">
<defs>
<linearGradient id="linear0" gradientUnits="userSpaceOnUse" x1="0" y1="0" x2="955.051" y2="1047.21" gradientTransform="matrix(0.125,0,0,0.125,0,0)">
<stop offset="0" style="stop-color:rgb(90.980392%,93.72549%,95.686275%);stop-opacity:1;"/>
<stop offset="1" style="stop-color:rgb(90.196078%,92.54902%,94.117647%);stop-opacity:1;"/>
</linearGradient>
<linearGradient id="linear1" gradientUnits="userSpaceOnUse" x1="973.503" y1="1036.64" x2="176.93" y2="-64.1958" gradientTransform="matrix(0.125,0,0,0.125,0,0)">
<stop offset="0" style="stop-color:rgb(17.647059%,44.313725%,71.372549%);stop-opacity:1;"/>
<stop offset="0.579482" style="stop-color:rgb(23.137255%,50.980392%,79.215686%);stop-opacity:1;"/>
<stop offset="1" style="stop-color:rgb(29.803922%,57.254902%,85.490196%);stop-opacity:1;"/>
</linearGradient>
<linearGradient id="linear2" gradientUnits="userSpaceOnUse" x1="809.459" y1="130.203" x2="224.971" y2="904.826" gradientTransform="matrix(0.125,0,0,0.125,0,0)">
<stop offset="0.451801" style="stop-color:rgb(100%,100%,100%);stop-opacity:1;"/>
<stop offset="1" style="stop-color:rgb(49.019608%,71.764706%,94.901961%);stop-opacity:1;"/>
</linearGradient>
</defs>
<g id="surface1">
<rect x="0" y="0" width="128" height="128" style="fill:rgb(76.862745%,76.862745%,76.862745%);fill-opacity:1;stroke:none;"/>
<rect x="0" y="0" width="128" height="128" style="fill:url(#linear0);stroke:none;"/>
<rect x="0" y="0" width="128" height="128" style="fill:url(#linear1);stroke:none;"/>
<path style=" stroke:none;fill-rule:evenodd;fill:url(#linear2);" d="M 58.574219 112.648438 C 85.28125 106.433594 112.675781 90.316406 111.523438 58.320312 C 111.523438 34.671875 90.292969 15.5 64.101562 15.5 C 37.910156 15.5 16.679688 34.671875 16.679688 58.320312 C 16.679688 76.988281 27.234375 91.691406 44.644531 97.085938 L 44.644531 43.246094 C 44.644531 41.589844 45.988281 40.246094 47.644531 40.246094 L 62.855469 40.246094 C 66.515625 40.246094 70.003906 40.625 73.316406 41.386719 C 76.632812 42.078125 79.535156 43.320312 82.019531 45.117188 C 84.507812 46.84375 86.472656 49.15625 87.925781 52.054688 C 89.445312 54.886719 90.203125 58.410156 90.203125 62.621094 C 90.203125 66.765625 89.445312 70.324219 87.925781 73.292969 C 86.472656 76.261719 84.507812 78.714844 82.019531 80.648438 C 79.535156 82.511719 76.667969 83.929688 73.421875 84.894531 C 70.175781 85.792969 66.792969 86.242188 63.269531 86.242188 L 58.570312 86.242188 L 58.570312 99.296875 C 58.570312 99.296875 58.574219 99.296875 58.574219 99.296875 Z M 65.664062 72.152344 L 59.242188 72.152344 L 59.242188 54.335938 L 65.25 54.335938 C 68.703125 54.335938 71.359375 54.957031 73.226562 56.199219 C 75.089844 57.445312 76.023438 59.585938 76.023438 62.621094 C 76.023438 65.660156 75.160156 68.011719 73.433594 69.667969 C 71.773438 71.324219 69.183594 72.152344 65.664062 72.152344 Z M 65.664062 72.152344 "/>
</g>
</svg>
